<?xml version="1.0" encoding="utf-8"?>
<!-- Generator: Adobe Illustrator 26.0.0, SVG Export Plug-In . SVG Version: 6.00 Build 0)  -->
<svg version="1.1" id="Capa_1" xmlns="http://www.w3.org/2000/svg" xmlns:xlink="http://www.w3.org/1999/xlink" x="0px" y="0px"
	 viewBox="0 0 347.4 66.5" style="enable-background:new 0 0 347.4 66.5;" xml:space="preserve">
<style type="text/css">
	.st0{fill:#FFFFFF;}
</style>
<g>
	<g>
		<g>
			<rect x="172.6" y="15.4" class="st0" width="0.7" height="39.3"/>
			<g>
				<path class="st0" d="M190.1,19.4v2.4h2.9v0.8h-2.9v3.2h-0.9v-7.3h4.1v0.9H190.1z"/>
				<path class="st0" d="M200,20.2v5.6h-0.7l-0.1-0.8c-0.5,0.6-1.3,1-2.2,1c-1.7,0-2.9-1.3-2.9-2.9c0-1.7,1.2-2.9,2.9-2.9
					c0.9,0,1.7,0.4,2.2,1l0.1-0.9h0.7V20.2z M199.1,23c0-1.2-0.9-2.1-2.1-2.1c-1.2,0-2.1,0.9-2.1,2.1s0.9,2.1,2.1,2.1
					C198.3,25.1,199.1,24.2,199.1,23z"/>
				<path class="st0" d="M201.4,23c0-1.7,1.3-2.9,2.9-2.9c1.3,0,2.4,0.8,2.7,2h-0.9c-0.3-0.7-1-1.2-1.8-1.2c-1.1,0-2,0.9-2,2.1
					s0.9,2.1,2,2.1c0.8,0,1.5-0.4,1.8-1.2h0.9c-0.3,1.2-1.4,2-2.7,2C202.6,26,201.4,24.7,201.4,23z"/>
				<path class="st0" d="M208.1,23.5v-3.2h0.9v3.1c0,1.1,0.6,1.8,1.6,1.8s1.6-0.7,1.6-1.8v-3.1h0.9v3.2c0,1.5-1,2.5-2.5,2.5
					S208.1,25,208.1,23.5z"/>
				<path class="st0" d="M214.8,18.2h0.9v7.6h-0.9V18.2z"/>
				<path class="st0" d="M220.4,25v0.8h-0.7c-1.2,0-1.9-0.7-1.9-2V21h-1v-0.2l1.7-1.8h0.1v1.2h1.8V21h-1.8v2.8
					c0,0.8,0.4,1.2,1.2,1.2H220.4z"/>
				<path class="st0" d="M227,20.2v5.6h-0.7l-0.1-0.8c-0.5,0.6-1.3,1-2.2,1c-1.7,0-2.9-1.3-2.9-2.9c0-1.7,1.2-2.9,2.9-2.9
					c0.9,0,1.7,0.4,2.2,1l0.1-0.9h0.7V20.2z M226.1,23c0-1.2-0.9-2.1-2.1-2.1c-1.2,0-2.1,0.9-2.1,2.1s0.9,2.1,2.1,2.1
					C225.2,25.1,226.1,24.2,226.1,23z"/>
				<path class="st0" d="M234.2,18.2v7.6h-0.7l-0.1-0.8c-0.5,0.6-1.3,0.9-2.2,0.9c-1.7,0-2.9-1.3-2.9-2.9c0-1.7,1.2-2.9,2.9-2.9
					c0.8,0,1.6,0.3,2.1,0.8v-2.7H234.2z M233.3,23c0-1.2-0.9-2.1-2.1-2.1c-1.2,0-2.1,0.9-2.1,2.1s0.9,2.1,2.1,2.1
					C232.5,25.1,233.3,24.2,233.3,23z"/>
				<path class="st0" d="M244.1,18.2v7.6h-0.7l-0.1-0.8c-0.5,0.6-1.3,0.9-2.2,0.9c-1.7,0-2.9-1.3-2.9-2.9c0-1.7,1.2-2.9,2.9-2.9
					c0.8,0,1.6,0.3,2.1,0.8v-2.7H244.1z M243.2,23c0-1.2-0.9-2.1-2.1-2.1c-1.2,0-2.1,0.9-2.1,2.1s0.9,2.1,2.1,2.1
					C242.4,25.1,243.2,24.2,243.2,23z"/>
				<path class="st0" d="M251,23.4h-4.8c0.1,1,0.9,1.7,2,1.7c0.8,0,1.4-0.4,1.7-1h0.9c-0.5,1.2-1.5,1.8-2.7,1.8
					c-1.6,0-2.9-1.3-2.9-2.9c0-1.7,1.2-2.9,2.9-2.9s2.8,1.3,2.8,2.9C251.1,23.2,251.1,23.3,251,23.4z M246.3,22.6h3.9
					c-0.2-1-0.9-1.6-1.9-1.6C247.2,20.9,246.5,21.6,246.3,22.6z"/>
				<path class="st0" d="M188.7,36.5c0-2.2,1.6-3.7,3.7-3.7c1.7,0,3,1,3.4,2.6H195c-0.4-1-1.3-1.7-2.5-1.7c-1.6,0-2.8,1.2-2.8,2.9
					s1.2,2.8,2.8,2.8c1.2,0,2.2-0.7,2.5-1.8h0.9c-0.4,1.6-1.8,2.7-3.5,2.7C190.3,40.3,188.7,38.7,188.7,36.5z"/>
				<path class="st0" d="M197.1,32.6h1v1h-1V32.6z M197.2,34.6h0.9v5.6h-0.9V34.6z"/>
				<path class="st0" d="M205,37.7h-4.8c0.1,1,0.9,1.7,2,1.7c0.8,0,1.4-0.4,1.7-1h0.9c-0.5,1.2-1.5,1.8-2.7,1.8
					c-1.6,0-2.9-1.3-2.9-2.9c0-1.7,1.2-2.9,2.9-2.9s2.8,1.3,2.8,2.9C205.1,37.5,205.1,37.6,205,37.7z M200.3,36.9h3.9
					c-0.2-1-0.9-1.6-1.9-1.6C201.2,35.3,200.5,35.9,200.3,36.9z"/>
				<path class="st0" d="M211.3,36.8v3.4h-0.9V37c0-1.1-0.5-1.8-1.5-1.8s-1.7,0.8-1.7,1.9v3.1h-0.9v-5.6h0.6l0.2,0.9
					c0.4-0.6,1.1-1,2-1C210.5,34.4,211.3,35.4,211.3,36.8z"/>
				<path class="st0" d="M212.6,37.4c0-1.7,1.3-2.9,2.9-2.9c1.3,0,2.4,0.8,2.7,2h-0.9c-0.3-0.7-1-1.2-1.8-1.2c-1.1,0-2,0.9-2,2.1
					c0,1.2,0.9,2.1,2,2.1c0.8,0,1.5-0.4,1.8-1.2h0.9c-0.3,1.2-1.4,2-2.7,2C213.8,40.3,212.6,39,212.6,37.4z"/>
				<path class="st0" d="M219.4,32.6h1v1h-1V32.6z M219.5,34.6h0.9v5.6h-0.9V34.6z"/>
				<path class="st0" d="M227.6,34.6v5.6h-0.7l-0.1-0.8c-0.5,0.6-1.3,1-2.2,1c-1.7,0-2.9-1.3-2.9-2.9c0-1.7,1.2-2.9,2.9-2.9
					c0.9,0,1.7,0.4,2.2,1l0.1-0.9L227.6,34.6L227.6,34.6z M226.7,37.4c0-1.2-0.9-2.1-2.1-2.1c-1.2,0-2.1,0.9-2.1,2.1
					c0,1.2,0.9,2.1,2.1,2.1C225.8,39.4,226.7,38.5,226.7,37.4z"/>
				<path class="st0" d="M231.1,40.3c-1.3,0-2.2-0.7-2.2-1.8h0.9c0,0.7,0.6,1,1.4,1c0.8,0,1.3-0.3,1.3-0.9c0-0.7-0.7-0.8-1.4-0.9
					c-1-0.2-2-0.4-2-1.6c0-1,0.8-1.6,2.1-1.6s2.1,0.7,2.1,1.7h-0.8c0-0.6-0.5-0.9-1.3-0.9s-1.2,0.3-1.2,0.8c0,0.6,0.6,0.7,1.4,0.8
					c1,0.2,2.1,0.3,2.1,1.7C233.3,39.6,232.5,40.3,231.1,40.3L231.1,40.3z"/>
				<path class="st0" d="M242.8,32.6v7.6h-0.7l-0.1-0.8c-0.5,0.6-1.3,0.9-2.2,0.9c-1.7,0-2.9-1.3-2.9-2.9c0-1.7,1.2-2.9,2.9-2.9
					c0.8,0,1.6,0.3,2.1,0.8v-2.7L242.8,32.6z M242,37.4c0-1.2-0.9-2.1-2.1-2.1c-1.2,0-2.1,0.9-2.1,2.1c0,1.2,0.9,2.1,2.1,2.1
					C241.1,39.4,242,38.5,242,37.4z"/>
				<path class="st0" d="M249.8,37.7H245c0.1,1,0.9,1.7,2,1.7c0.8,0,1.4-0.4,1.7-1h0.9c-0.5,1.2-1.5,1.8-2.7,1.8
					c-1.6,0-2.9-1.3-2.9-2.9c0-1.7,1.2-2.9,2.9-2.9s2.8,1.3,2.8,2.9C249.8,37.5,249.8,37.6,249.8,37.7z M245,36.9h3.9
					c-0.2-1-0.9-1.6-1.9-1.6C246,35.3,245.2,35.9,245,36.9z"/>
				<path class="st0" d="M253.8,32.6h0.9v7.6h-0.9V32.6z"/>
				<path class="st0" d="M261.9,34.6v5.6h-0.7l-0.1-0.8c-0.5,0.6-1.3,1-2.2,1c-1.7,0-2.9-1.3-2.9-2.9c0-1.7,1.2-2.9,2.9-2.9
					c0.9,0,1.7,0.4,2.2,1l0.1-0.9L261.9,34.6L261.9,34.6z M261,37.4c0-1.2-0.9-2.1-2.1-2.1s-2.1,0.9-2.1,2.1c0,1.2,0.9,2.1,2.1,2.1
					C260.2,39.4,261,38.5,261,37.4z"/>
				<path class="st0" d="M266,36.5c0-2.2,1.6-3.7,3.7-3.7c1.7,0,3,1,3.4,2.6h-0.9c-0.4-1-1.3-1.7-2.5-1.7c-1.6,0-2.8,1.2-2.8,2.9
					s1.2,2.8,2.8,2.8c1.2,0,2.2-0.7,2.5-1.8h0.9c-0.4,1.6-1.8,2.7-3.5,2.7C267.6,40.3,266,38.7,266,36.5z"/>
				<path class="st0" d="M274,37.4c0-1.7,1.3-2.9,3-2.9s3,1.2,3,2.9s-1.3,2.9-3,2.9C275.3,40.3,274,39,274,37.4z M279.1,37.4
					c0-1.2-0.9-2.1-2.1-2.1s-2.1,0.9-2.1,2.1c0,1.2,0.9,2.1,2.1,2.1C278.2,39.4,279.1,38.5,279.1,37.4z"/>
				<path class="st0" d="M289.5,36.6v3.6h-0.9v-3.3c0-1-0.5-1.6-1.3-1.6s-1.5,0.8-1.5,1.8v3.1H285v-3.3c0-1-0.5-1.6-1.3-1.6
					s-1.5,0.8-1.5,1.8v3.1h-0.9v-5.6h0.6l0.1,0.8c0.4-0.6,1.1-0.9,1.8-0.9c0.8,0,1.4,0.4,1.7,1.1c0.4-0.7,1.1-1.1,1.9-1.1
					C288.7,34.4,289.5,35.3,289.5,36.6z"/>
				<path class="st0" d="M291.1,37.8v-3.2h0.9v3.1c0,1.1,0.6,1.8,1.6,1.8s1.6-0.7,1.6-1.8v-3.1h0.9v3.2c0,1.5-1,2.5-2.5,2.5
					C292,40.3,291.1,39.3,291.1,37.8z"/>
				<path class="st0" d="M302.7,36.8v3.4h-0.9V37c0-1.1-0.5-1.8-1.5-1.8s-1.7,0.8-1.7,1.9v3.1h-0.9v-5.6h0.6l0.2,0.9
					c0.4-0.6,1.1-1,2-1C301.8,34.4,302.7,35.4,302.7,36.8z"/>
				<path class="st0" d="M304.3,32.6h1v1h-1V32.6z M304.4,34.6h0.9v5.6h-0.9V34.6z"/>
				<path class="st0" d="M306.6,37.4c0-1.7,1.3-2.9,2.9-2.9c1.3,0,2.4,0.8,2.7,2h-0.9c-0.3-0.7-1-1.2-1.8-1.2c-1.1,0-2,0.9-2,2.1
					c0,1.2,0.9,2.1,2,2.1c0.8,0,1.5-0.4,1.8-1.2h0.9c-0.3,1.2-1.4,2-2.7,2C307.8,40.3,306.6,39,306.6,37.4z"/>
				<path class="st0" d="M318.9,34.6v5.6h-0.7l-0.1-0.8c-0.5,0.6-1.3,1-2.2,1c-1.7,0-2.9-1.3-2.9-2.9c0-1.7,1.2-2.9,2.9-2.9
					c0.9,0,1.7,0.4,2.2,1l0.1-0.9L318.9,34.6L318.9,34.6z M318,37.4c0-1.2-0.9-2.1-2.1-2.1s-2.1,0.9-2.1,2.1c0,1.2,0.9,2.1,2.1,2.1
					C317.1,39.4,318,38.5,318,37.4z"/>
				<path class="st0" d="M320.2,37.4c0-1.7,1.3-2.9,2.9-2.9c1.3,0,2.4,0.8,2.7,2H325c-0.3-0.7-1-1.2-1.8-1.2c-1.1,0-2,0.9-2,2.1
					c0,1.2,0.9,2.1,2,2.1c0.8,0,1.5-0.4,1.8-1.2h0.9c-0.3,1.2-1.4,2-2.7,2C321.5,40.3,320.2,39,320.2,37.4z"/>
				<path class="st0" d="M327.1,32.6h1v1h-1V32.6z M327.1,34.6h0.9v5.6h-0.9V34.6z"/>
				<path class="st0" d="M329.3,37.4c0-1.7,1.3-2.9,3-2.9s3,1.2,3,2.9s-1.3,2.9-3,2.9C330.6,40.3,329.3,39,329.3,37.4z M334.3,37.4
					c0-1.2-0.9-2.1-2.1-2.1s-2.1,0.9-2.1,2.1c0,1.2,0.9,2.1,2.1,2.1C333.5,39.4,334.3,38.5,334.3,37.4z M332.5,32.3h0.9l-0.9,1.6
					h-0.7L332.5,32.3z"/>
				<path class="st0" d="M341.5,36.8v3.4h-0.9V37c0-1.1-0.5-1.8-1.5-1.8s-1.7,0.8-1.7,1.9v3.1h-0.9v-5.6h0.6l0.2,0.9
					c0.4-0.6,1.1-1,2-1C340.7,34.4,341.5,35.4,341.5,36.8z"/>
				<path class="st0" d="M343.1,41c0.4-0.1,0.5-0.4,0.5-0.9H343V39h1.1v1c0,0.8-0.4,1.3-1,1.5V41z"/>
				<path class="st0" d="M193.8,48.1h-2.2v6.4h-0.9v-6.4h-2.2v-0.9h5.3L193.8,48.1L193.8,48.1z"/>
				<path class="st0" d="M194.8,52.1v-3.2h0.9V52c0,1.1,0.6,1.8,1.6,1.8s1.6-0.7,1.6-1.8v-3.1h0.9v3.2c0,1.5-1,2.5-2.5,2.5
					C195.8,54.6,194.8,53.6,194.8,52.1z"/>
				<path class="st0" d="M204.5,48.8v0.8h-0.6c-1,0-1.6,0.7-1.6,1.8v3h-0.9v-5.6h0.6l0.1,0.9c0.4-0.6,1-0.9,1.8-0.9H204.5z"/>
				<path class="st0" d="M205.4,46.9h1v1h-1V46.9z M205.4,48.9h0.9v5.6h-0.9V48.9z"/>
				<path class="st0" d="M207.6,52.8h0.9c0,0.7,0.6,1,1.4,1c0.8,0,1.3-0.3,1.3-0.9c0-0.7-0.7-0.8-1.4-0.9c-1-0.2-2-0.4-2-1.6
					c0-1,0.8-1.6,2.1-1.6s2.1,0.7,2.1,1.7h-0.8c0-0.6-0.5-0.9-1.3-0.9s-1.2,0.3-1.2,0.8c0,0.6,0.6,0.7,1.4,0.8
					c1,0.2,2.1,0.3,2.1,1.7c0,1-0.9,1.7-2.2,1.7C208.5,54.6,207.7,53.9,207.6,52.8z"/>
				<path class="st0" d="M221.6,50.9v3.6h-0.9v-3.3c0-1-0.5-1.6-1.3-1.6s-1.5,0.8-1.5,1.8v3.1H217v-3.3c0-1-0.5-1.6-1.3-1.6
					s-1.5,0.8-1.5,1.8v3.1h-0.9v-5.6h0.6l0.1,0.8c0.4-0.6,1.1-0.9,1.8-0.9c0.8,0,1.4,0.4,1.7,1.1c0.4-0.7,1.1-1.1,1.9-1.1
					C220.8,48.8,221.6,49.6,221.6,50.9z"/>
				<path class="st0" d="M222.8,51.7c0-1.7,1.3-2.9,3-2.9s3,1.2,3,2.9s-1.3,2.9-3,2.9C224.1,54.6,222.8,53.3,222.8,51.7z
					 M227.9,51.7c0-1.2-0.9-2.1-2.1-2.1c-1.2,0-2.1,0.9-2.1,2.1c0,1.2,0.9,2.1,2.1,2.1C227,53.7,227.9,52.9,227.9,51.7z"/>
				<path class="st0" d="M237.8,48.9l-2.7,5.8c-0.6,1.3-1.1,1.8-2.2,1.8h-0.5v-0.8h0.5c0.7,0,1-0.2,1.5-1.2l0.2-0.4l-2.5-5.2h1
					l2,4.2l1.9-4.2C237,48.9,237.8,48.9,237.8,48.9z"/>
				<path class="st0" d="M246.7,49.5c0,1.3-1,2.3-2.4,2.3h-1.7v2.6h-0.9v-7.3h2.6C245.7,47.2,246.7,48.2,246.7,49.5z M245.8,49.5
					c0-0.8-0.6-1.4-1.5-1.4h-1.6V51h1.6C245.1,51,245.8,50.4,245.8,49.5z"/>
				<path class="st0" d="M247.5,52.8h0.9c0,0.7,0.6,1,1.4,1c0.8,0,1.3-0.3,1.3-0.9c0-0.7-0.7-0.8-1.4-0.9c-1-0.2-2-0.4-2-1.6
					c0-1,0.8-1.6,2.1-1.6s2.1,0.7,2.1,1.7h-0.8c0-0.6-0.5-0.9-1.3-0.9s-1.2,0.3-1.2,0.8c0,0.6,0.6,0.7,1.4,0.8
					c1,0.2,2.1,0.3,2.1,1.7c0,1-0.9,1.7-2.2,1.7C248.4,54.6,247.5,53.9,247.5,52.8z"/>
				<path class="st0" d="M253.2,46.9h1v1h-1V46.9z M253.2,48.9h0.9v5.6h-0.9V48.9z"/>
				<path class="st0" d="M255.4,51.7c0-1.7,1.3-2.9,2.9-2.9c1.3,0,2.4,0.8,2.7,2h-0.9c-0.3-0.7-1-1.2-1.8-1.2c-1.1,0-2,0.9-2,2.1
					c0,1.2,0.9,2.1,2,2.1c0.8,0,1.5-0.4,1.8-1.2h0.9c-0.3,1.2-1.4,2-2.7,2C256.7,54.6,255.4,53.3,255.4,51.7z"/>
				<path class="st0" d="M261.9,51.7c0-1.7,1.3-2.9,3-2.9s3,1.2,3,2.9s-1.3,2.9-3,2.9C263.1,54.6,261.9,53.3,261.9,51.7z
					 M266.9,51.7c0-1.2-0.9-2.1-2.1-2.1s-2.1,0.9-2.1,2.1c0,1.2,0.9,2.1,2.1,2.1C266,53.7,266.9,52.9,266.9,51.7z"/>
				<path class="st0" d="M269.1,46.9h0.9v7.6h-0.9V46.9z"/>
				<path class="st0" d="M271.4,51.7c0-1.7,1.3-2.9,3-2.9s3,1.2,3,2.9s-1.3,2.9-3,2.9C272.6,54.6,271.4,53.3,271.4,51.7z
					 M276.4,51.7c0-1.2-0.9-2.1-2.1-2.1s-2.1,0.9-2.1,2.1c0,1.2,0.9,2.1,2.1,2.1C275.5,53.7,276.4,52.9,276.4,51.7z"/>
				<path class="st0" d="M283.8,48.9v4.8c0,1.8-1,2.9-2.7,2.9c-1.4,0-2.3-0.7-2.7-1.9h0.9c0.2,0.7,1,1.1,1.8,1.1
					c1.1,0,1.9-0.7,1.9-2v-0.3c-0.5,0.5-1.2,0.8-2,0.8c-1.6,0-2.8-1.2-2.8-2.8s1.2-2.8,2.8-2.8c0.9,0,1.7,0.4,2.2,1l0.1-0.9
					L283.8,48.9z M283,51.5c0-1.1-0.8-1.9-1.9-1.9s-1.9,0.8-1.9,1.9c0,1.1,0.8,1.9,1.9,1.9S283,52.6,283,51.5z"/>
				<path class="st0" d="M285.6,48.9h0.9v5.6h-0.9V48.9z M286.2,46.6h0.9l-0.7,1.6h-0.7L286.2,46.6z"/>
				<path class="st0" d="M293.7,48.9v5.6H293l-0.1-0.8c-0.5,0.6-1.3,1-2.2,1c-1.7,0-2.9-1.3-2.9-2.9c0-1.7,1.2-2.9,2.9-2.9
					c0.9,0,1.7,0.4,2.2,1L293,49L293.7,48.9L293.7,48.9z M292.8,51.7c0-1.2-0.9-2.1-2.1-2.1s-2.1,0.9-2.1,2.1c0,1.2,0.9,2.1,2.1,2.1
					C292,53.7,292.8,52.9,292.8,51.7z"/>
			</g>
		</g>
	</g>
	<g>
		<g>
			<g>
				<g>
					<path class="st0" d="M67.9,47v-2h0.6v2c0,0.6,0.3,1,0.9,1c0.5,0,0.9-0.3,0.9-0.9v-2h0.6V47c0,1-0.6,1.5-1.5,1.5
						S67.9,48,67.9,47z"/>
					<path class="st0" d="M73,45.1h0.6l1.8,2.4v-2.4H76v3.4h-0.5l-1.9-2.4v2.4H73V45.1z"/>
					<path class="st0" d="M78.3,45.1h0.6v3.4h-0.6V45.1z"/>
					<path class="st0" d="M80.9,45.1h0.7l1,2.6l1-2.6h0.7l-1.4,3.4h-0.5L80.9,45.1z"/>
					<path class="st0" d="M86.2,45.1h2.5v0.5h-1.9v0.9h1.7V47h-1.7v1h2v0.5h-2.6V45.1z"/>
					<path class="st0" d="M90.9,45.1h1.5c0.4,0,0.8,0.1,1,0.3s0.3,0.4,0.3,0.7l0,0c0,0.6-0.3,0.9-0.8,1l0.9,1.3h-0.7l-0.8-1.2h-0.8
						v1.2h-0.6V45.1z M92.4,46.8c0.4,0,0.7-0.2,0.7-0.6l0,0c0-0.4-0.3-0.6-0.7-0.6h-0.9v1.1L92.4,46.8L92.4,46.8z"/>
					<path class="st0" d="M95.6,48l0.4-0.4c0.3,0.3,0.7,0.4,1.1,0.4s0.6-0.2,0.6-0.4l0,0c0-0.2-0.1-0.4-0.8-0.5
						c-0.7-0.2-1.1-0.4-1.1-1l0,0c0-0.6,0.5-1,1.2-1c0.5,0,0.9,0.2,1.2,0.4L97.9,46c-0.3-0.2-0.6-0.4-0.9-0.4
						c-0.4,0-0.6,0.2-0.6,0.4l0,0c0,0.3,0.2,0.4,0.8,0.5c0.7,0.2,1.1,0.4,1.1,1l0,0c0,0.6-0.5,1-1.2,1C96.5,48.5,96,48.4,95.6,48z"
						/>
					<path class="st0" d="M100.3,45.1h0.6v3.4h-0.6V45.1z"/>
					<path class="st0" d="M103.2,45.1h1.3c1.1,0,1.8,0.7,1.8,1.7l0,0c0,1-0.7,1.7-1.8,1.7h-1.3V45.1z M103.8,45.7V48h0.7
						c0.7,0,1.2-0.5,1.2-1.2l0,0c0-0.7-0.5-1.2-1.2-1.2h-0.7V45.7z"/>
					<path class="st0" d="M109.4,45.1h0.6l1.5,3.4h-0.6l-0.3-0.8H109l-0.4,0.8H108L109.4,45.1z M110.3,47.2l-0.6-1.4l-0.6,1.4H110.3
						z"/>
					<path class="st0" d="M113.4,45.1h1.3c1.1,0,1.8,0.7,1.8,1.7l0,0c0,1-0.7,1.7-1.8,1.7h-1.3V45.1z M114,45.7V48h0.7
						c0.7,0,1.2-0.5,1.2-1.2l0,0c0-0.7-0.5-1.2-1.2-1.2H114V45.7z"/>
					<path class="st0" d="M121.4,45.1h1.3c1.1,0,1.8,0.7,1.8,1.7l0,0c0,1-0.7,1.7-1.8,1.7h-1.3V45.1z M122.1,45.7V48h0.7
						c0.7,0,1.2-0.5,1.2-1.2l0,0c0-0.7-0.5-1.2-1.2-1.2h-0.7V45.7z"/>
					<path class="st0" d="M126.6,45.1h2.5v0.5h-1.9v0.9h1.7V47h-1.7v1h2v0.5h-2.6L126.6,45.1L126.6,45.1z"/>
					<path class="st0" d="M67.7,54.5l0.4-0.4c0.3,0.3,0.7,0.4,1.1,0.4s0.6-0.2,0.6-0.4l0,0c0-0.2-0.1-0.4-0.8-0.5
						c-0.7-0.2-1.1-0.4-1.1-1l0,0c0-0.6,0.5-1,1.2-1c0.5,0,0.9,0.2,1.2,0.4L70,52.4c-0.4-0.2-0.7-0.4-1-0.4c-0.4,0-0.6,0.2-0.6,0.4
						l0,0c0,0.3,0.2,0.4,0.8,0.5c0.7,0.2,1.1,0.4,1.1,1l0,0c0,0.6-0.5,1-1.2,1C68.6,55,68.1,54.8,67.7,54.5z"/>
					<path class="st0" d="M73.6,51.6h0.6l1.5,3.4H75l-0.3-0.8h-1.6L72.7,55h-0.6L73.6,51.6z M74.5,53.7l-0.6-1.4l-0.6,1.4H74.5z"/>
					<path class="st0" d="M77.6,51.6h0.6L80,54v-2.4h0.6V55h-0.5l-1.9-2.4V55h-0.6V51.6z"/>
					<path class="st0" d="M85.7,51.6h0.6l1,1.6l1-1.6h0.6V55h-0.6v-2.5l-1.1,1.6l0,0l-1.1-1.6V55h-0.6v-3.4H85.7z"/>
					<path class="st0" d="M92.5,51.6h0.6l1.5,3.4H94l-0.3-0.8H92L91.6,55H91L92.5,51.6z M93.4,53.7l-0.6-1.4l-0.6,1.4H93.4z"/>
					<path class="st0" d="M96.6,51.6h1.5c0.4,0,0.8,0.1,1,0.3s0.3,0.4,0.3,0.7l0,0c0,0.6-0.3,0.9-0.8,1l0.9,1.3h-0.7L98,53.7h-0.8
						V55h-0.6V51.6z M98,53.3c0.4,0,0.7-0.2,0.7-0.6l0,0c0-0.4-0.3-0.6-0.7-0.6h-0.9v1.1L98,53.3L98,53.3z"/>
					<path class="st0" d="M102.3,52.2h-1.1v-0.6h2.8v0.6h-1.1V55h-0.6C102.3,55,102.3,52.2,102.3,52.2z"/>
					<path class="st0" d="M106,51.6h0.6V55H106V51.6z M106.6,50.6l0.5,0.2l-0.6,0.5H106L106.6,50.6z"/>
					<path class="st0" d="M108.9,51.6h0.6l1.8,2.4v-2.4h0.6V55h-0.5l-1.9-2.4V55h-0.6V51.6z"/>
					<path class="st0" d="M117,51.6h1.3c1.1,0,1.8,0.7,1.8,1.7l0,0c0,1-0.7,1.7-1.8,1.7H117V51.6z M117.6,52.1v2.3h0.7
						c0.7,0,1.2-0.5,1.2-1.2l0,0c0-0.7-0.5-1.2-1.2-1.2h-0.7V52.1z"/>
					<path class="st0" d="M122.2,51.6h2.5v0.5h-1.9V53h1.7v0.5h-1.7v0.9h2V55h-2.6V51.6z"/>
					<path class="st0" d="M129.7,51.6h1.4c0.8,0,1.3,0.5,1.3,1.1l0,0c0,0.8-0.6,1.2-1.4,1.2h-0.7V55h-0.6V51.6z M131,53.4
						c0.5,0,0.7-0.3,0.7-0.6l0,0c0-0.4-0.3-0.6-0.7-0.6h-0.7v1.2C130.3,53.4,131,53.4,131,53.4z"/>
					<path class="st0" d="M134.2,53.3L134.2,53.3c0-1,0.7-1.8,1.8-1.8s1.8,0.8,1.8,1.8l0,0c0,1-0.7,1.8-1.8,1.8
						C134.9,55,134.2,54.2,134.2,53.3z M137.1,53.3L137.1,53.3c0-0.7-0.5-1.2-1.2-1.2s-1.2,0.5-1.2,1.2l0,0c0,0.7,0.5,1.2,1.2,1.2
						S137.1,53.9,137.1,53.3z"/>
					<path class="st0" d="M139.8,51.6h1.5c0.4,0,0.8,0.1,1,0.3s0.3,0.4,0.3,0.7l0,0c0,0.6-0.3,0.9-0.8,1l0.9,1.3H142l-0.8-1.2h-0.8
						V55h-0.6L139.8,51.6L139.8,51.6z M141.3,53.3c0.4,0,0.7-0.2,0.7-0.6l0,0c0-0.4-0.3-0.6-0.7-0.6h-0.9v1.1L141.3,53.3L141.3,53.3
						z"/>
					<path class="st0" d="M144.8,51.6h1.5c0.4,0,0.8,0.1,1,0.3s0.3,0.4,0.3,0.7l0,0c0,0.6-0.3,0.9-0.8,1l0.9,1.3H147l-0.8-1.2h-0.8
						V55h-0.6L144.8,51.6L144.8,51.6z M146.2,53.3c0.4,0,0.7-0.2,0.7-0.6l0,0c0-0.4-0.3-0.6-0.7-0.6h-0.9v1.1L146.2,53.3L146.2,53.3
						z"/>
					<path class="st0" d="M149.7,51.6h2.5v0.5h-1.9V53h1.7v0.5h-1.7v0.9h2V55h-2.6V51.6z"/>
					<path class="st0" d="M154.1,54.5l0.4-0.4c0.3,0.3,0.7,0.4,1.1,0.4c0.4,0,0.6-0.2,0.6-0.4l0,0c0-0.2-0.1-0.4-0.8-0.5
						c-0.7-0.2-1.1-0.4-1.1-1l0,0c0-0.6,0.5-1,1.2-1c0.5,0,0.9,0.2,1.2,0.4l-0.3,0.5c-0.3-0.2-0.6-0.4-0.9-0.4
						c-0.4,0-0.6,0.2-0.6,0.4l0,0c0,0.3,0.2,0.4,0.8,0.5c0.7,0.2,1.1,0.4,1.1,1l0,0c0,0.6-0.5,1-1.2,1C155,55,154.5,54.8,154.1,54.5
						z"/>
				</g>
			</g>
			<path class="st0" d="M70.5,18.6v12.5c0,0.6,0.1,1.3,0.3,2c0.2,0.7,0.5,1.3,0.9,1.9c0.4,0.6,1,1.1,1.6,1.4
				c0.7,0.4,1.5,0.6,2.5,0.6s1.8-0.2,2.5-0.6c0.7-0.4,1.2-0.9,1.6-1.4c0.4-0.6,0.7-1.2,0.9-1.9c0.2-0.7,0.3-1.4,0.3-2V18.6h2.8v12.9
				c0,1.2-0.2,2.3-0.6,3.3s-1,1.8-1.7,2.6c-0.7,0.7-1.6,1.3-2.6,1.7s-2,0.6-3.2,0.6c-1.1,0-2.2-0.2-3.2-0.6c-1-0.4-1.8-1-2.6-1.7
				c-0.7-0.7-1.3-1.6-1.7-2.6c-0.4-1-0.6-2.1-0.6-3.3V18.6H70.5z"/>
			<path class="st0" d="M105,33.5c0-1.2-0.3-2.2-0.8-2.9c-0.5-0.7-1.1-1.2-1.9-1.6c-0.7-0.4-1.6-0.7-2.5-0.9
				c-0.9-0.2-1.7-0.5-2.4-0.8c-0.7-0.3-1.4-0.6-1.9-1.1c-0.5-0.4-0.7-1.1-0.7-1.9c0-0.3,0.1-0.6,0.2-1c0.1-0.3,0.3-0.7,0.6-1
				c0.3-0.3,0.7-0.6,1.2-0.7c0.5-0.2,1.2-0.3,1.9-0.3c0.8,0,1.5,0.2,2.2,0.5c0.6,0.3,1.1,0.7,1.5,1.3l0,0l2.4-2.1l0,0
				c-0.8-0.9-1.7-1.5-2.7-1.8s-2-0.4-3-0.4c-0.1,0-0.2,0-0.3,0l0,0l0,0c-1.3,0-2.3,0.2-3.2,0.6c-0.9,0.4-1.6,0.8-2.2,1.4
				c-0.6,0.5-1,1.2-1.2,1.8c-0.3,0.7-0.4,1.3-0.4,1.9c0,1,0.1,1.8,0.4,2.5c0.1,0.2,0.2,0.4,0.3,0.6c0.5,0.8,1.1,1.4,1.9,1.8
				c0.7,0.5,1.6,0.8,2.5,1.1c0.9,0.3,1.7,0.5,2.4,0.8c0.7,0.3,1.4,0.6,1.9,1c0.5,0.4,0.7,1,0.7,1.7c0,0.5-0.1,1-0.4,1.4
				c-0.2,0.4-0.6,0.8-1,1c-0.4,0.3-0.8,0.5-1.3,0.6s-1,0.2-1.4,0.2c-0.8,0-1.6-0.2-2.4-0.5s-1.4-0.9-1.9-1.6l0,0l-2.4,2l0,0
				c0.7,0.9,1.7,1.6,2.9,2.1c0.9,0.3,1.8,0.6,2.8,0.6c0.3,0,0.7,0,1,0c1,0,1.9-0.1,2.8-0.4c0.4-0.1,0.8-0.3,1.2-0.5
				c0.4-0.2,0.8-0.5,1.1-0.7c0.6-0.5,1.2-1.2,1.5-2C104.8,35.3,105,34.5,105,33.5L105,33.5L105,33.5z"/>
			<path class="st0" d="M112.8,18.6h4.2l6.6,15.8h0.1l6.6-15.8h4.2v21.1h-2.8V22.3h-0.1l-7.1,17.4h-1.7l-7.1-17.4h-0.1v17.4h-2.8
				C112.8,39.7,112.8,18.6,112.8,18.6z"/>
			<path class="st0" d="M142.7,18.6h7.3c1.3,0,2.4,0.2,3.3,0.5c0.9,0.4,1.5,0.8,2,1.4s0.8,1.2,1,1.9c0.2,0.7,0.3,1.4,0.3,2
				s-0.1,1.3-0.3,2s-0.5,1.3-1,1.9s-1.2,1-2,1.4c-0.9,0.4-2,0.5-3.3,0.5h-4.5v9.4h-2.8V18.6z M145.6,27.8h3.7c0.5,0,1.1,0,1.6-0.1
				s1-0.2,1.4-0.5c0.4-0.2,0.8-0.6,1-1c0.3-0.4,0.4-1,0.4-1.7s-0.1-1.3-0.4-1.7c-0.3-0.4-0.6-0.8-1-1s-0.9-0.4-1.4-0.5
				s-1.1-0.1-1.6-0.1h-3.7V27.8z"/>
		</g>
		<g>
			<g>
				<g>
					<g>
						<g>
							<path class="st0" d="M3.3,17v-0.7c0,0,0-0.1,0.1-0.1l4.3-0.9c0,0,0.1,0,0.1,0.1v0.7c0,0,0,0.1-0.1,0.1l-2.8,0.5l0,0l2.8,0.4
								c0,0,0.1,0,0.1,0.1v0.7c0,0,0,0.1-0.1,0.1L3.3,17C3.3,17.1,3.3,17.1,3.3,17z"/>
							<path class="st0" d="M3.4,21.6h4.3c0,0,0.1,0,0.1,0.1v1.9c0,0,0,0.1-0.1,0.1H7c0,0-0.1,0-0.1-0.1v-1.1l0,0H6l0,0v1
								c0,0,0,0.1-0.1,0.1H5.2c0,0-0.1,0-0.1-0.1v-1l0,0h-1l0,0v1.1c0,0,0,0.1-0.1,0.1H3.4c0,0-0.1,0-0.1-0.1L3.4,21.6
								C3.3,21.7,3.3,21.6,3.4,21.6z"/>
							<path class="st0" d="M3.3,30v-0.8c0,0,0-0.1,0.1-0.1L5,28.6v-0.2l0,0H3.4c0,0-0.1,0-0.1-0.1v-0.7c0,0,0-0.1,0.1-0.1h4.3
								c0,0,0.1,0,0.1,0.1v1.1c0,0.9-0.5,1.3-1.4,1.3c-0.5,0-0.9-0.2-1.1-0.5L3.3,30L3.3,30z M5.8,28.5c0,0.2,0,0.3,0.1,0.4
								S6.1,29,6.4,29c0.2,0,0.4,0,0.5-0.1c0-0.1,0.1-0.2,0.1-0.4v-0.2l0,0H5.9l0,0L5.8,28.5L5.8,28.5z"/>
							<path class="st0" d="M3.4,33.7h4.3c0,0,0.1,0,0.1,0.1v0.7c0,0,0,0.1-0.1,0.1H3.4c0,0-0.1,0-0.1-0.1L3.4,33.7
								C3.3,33.7,3.3,33.7,3.4,33.7z"/>
							<path class="st0" d="M3.3,39.9v-0.7c0,0,0-0.1,0.1-0.1L6.9,39l0,0v-0.7c0,0,0-0.1,0.1-0.1h0.6c0,0,0.1,0,0.1,0.1l0.1,2.3
								c0,0,0,0.1-0.1,0.1H7.1c0,0-0.1,0-0.1-0.1v-0.7l0,0L3.3,39.9L3.3,39.9z"/>
							<path class="st0" d="M4.3,44.8l4.3-1h0.1L9,44.5v0.1l-3.5,2.7H5.4l-0.3-0.7v-0.1L5.8,46l-0.4-0.8l-0.8,0.2H4.5L4.3,44.8
								L4.3,44.8z M6.1,45.2l0.3,0.5l1.3-0.9l0,0L6.1,45.2z"/>
							<path class="st0" d="M10.9,51.6c-0.3,0.3-0.6,0.5-0.9,0.5c-0.3,0-0.6-0.1-0.9-0.4c-0.6-0.5-0.6-1.1,0-1.7h0.1l0.6,0.4v0.1
								c-0.1,0.2-0.2,0.3-0.2,0.4c0,0.1,0,0.2,0.1,0.3s0.2,0.1,0.3,0.1s0.2-0.1,0.3-0.2c0.1-0.1,0.2-0.3,0.2-0.4
								c0-0.1,0-0.2-0.1-0.4L10.3,50c-0.1-0.3-0.2-0.6-0.1-0.8c0-0.2,0.2-0.5,0.4-0.7c0.6-0.6,1.1-0.6,1.7-0.1
								c0.5,0.5,0.6,1.1,0.1,1.6h-0.1l-0.6-0.4v-0.1c0.2-0.2,0.2-0.4,0.1-0.6c-0.2-0.2-0.3-0.1-0.6,0.1C11,49.2,11,49.3,11,49.4
								c0,0.1,0,0.2,0.1,0.4l0.1,0.3c0.1,0.3,0.2,0.6,0.1,0.8C11.3,51.1,11.1,51.3,10.9,51.6z"/>
							<path class="st0" d="M17.1,57.8l2.2-3.7h0.1l0.6,0.4v0.1l-1.8,3.1c0,0,0,0,0,0.1l1,0.6v0.1l-0.3,0.6h-0.1L17.1,57.8
								C17.1,57.9,17.1,57.9,17.1,57.8z"/>
							<path class="st0" d="M22.4,60.7l1.8-3.9c0,0,0-0.1,0.1,0l0.7,0.3c0,0,0.1,0,0,0.1l-1.8,3.9c0,0,0,0.1-0.1,0L22.4,60.7
								C22.4,60.8,22.4,60.7,22.4,60.7z"/>
							<path class="st0" d="M27.6,62.7l0.4-4.3c0,0,0-0.1,0.1-0.1l1.1,0.1c0.4,0,0.7,0.2,0.9,0.4c0.2,0.2,0.2,0.5,0.2,0.9
								c0,0.5-0.2,0.8-0.6,0.9l0,0c0.4,0.1,0.5,0.5,0.5,1.1c0,0.5-0.2,0.8-0.4,1c-0.2,0.2-0.6,0.2-1,0.2L27.6,62.7L27.6,62.7z
								 M28.5,62.1L28.5,62.1l0.2,0.1c0.2,0,0.3,0,0.4-0.1s0.1-0.2,0.2-0.5c0-0.2,0-0.4-0.1-0.5S29,61,28.8,60.9h-0.2l0,0L28.5,62.1
								z M28.7,60.2h0.2c0.2,0,0.3,0,0.4-0.1s0.1-0.2,0.1-0.4s0-0.4,0-0.4c-0.1-0.1-0.2-0.1-0.3-0.1h-0.2l0,0L28.7,60.2L28.7,60.2z"
								/>
							<path class="st0" d="M34.9,61.8l-1.7-4v-0.1L35,57h0.1l0.3,0.6v0.1l-1,0.4c0,0,0,0,0,0.1l0.4,0.9c0,0,0,0,0.1,0l0.9-0.4h0.1
								l0.3,0.6v0.1L35,59.8c0,0,0,0,0,0.1l0.4,0.9c0,0,0,0,0.1,0l1-0.4h0.1l0.3,0.6v0.1L34.9,61.8C35,61.8,34.9,61.8,34.9,61.8z"/>
							<path class="st0" d="M42.6,57.9l-0.7,0.4h-0.1l-1.3-1.2l-0.2,0.1c0,0,0,0,0,0.1l0.8,1.4v0.1l-0.6,0.4h-0.1l-2.2-3.7v-0.1
								l0.9-0.5c0.7-0.4,1.4-0.3,1.8,0.5c0.3,0.5,0.3,0.9,0.1,1.2L42.6,57.9C42.6,57.9,42.7,57.9,42.6,57.9z M40.1,56.5
								c0.1-0.1,0.2-0.2,0.3-0.3c0-0.1,0-0.3-0.1-0.5s-0.2-0.3-0.3-0.4c-0.1,0-0.2,0-0.4,0.1l-0.2,0.1c0,0,0,0,0,0.1l0.6,1
								C40,56.6,40,56.6,40.1,56.5L40.1,56.5z"/>
							<path class="st0" d="M45.8,55.7l-1.9-4v-0.1l0.6-0.5h0.1L48,54v0.1l-0.6,0.4h-0.1L46.7,54L46,54.5l0.4,0.7v0.1L45.8,55.7
								C45.8,55.8,45.8,55.8,45.8,55.7z M45.7,53.9l0.5-0.4l-1.2-1l0,0L45.7,53.9z"/>
							<path class="st0" d="M51,51.3l-3.2-2.9v-0.1l0.8-0.8c0.3-0.3,0.6-0.5,0.8-0.5c0.3,0,0.5,0.1,0.8,0.4c0.4,0.3,0.5,0.7,0.4,1
								l0,0c0.3-0.2,0.7-0.1,1.1,0.3c0.3,0.3,0.5,0.6,0.5,0.9c0,0.3-0.2,0.6-0.5,0.9L51,51.3C51.1,51.3,51,51.3,51,51.3z M49.7,48.9
								L49.7,48.9c0.2-0.2,0.3-0.3,0.3-0.4s-0.1-0.2-0.3-0.4c-0.2-0.1-0.3-0.2-0.4-0.2c-0.1,0-0.2,0.1-0.3,0.2l-0.1,0.1
								c0,0,0,0,0,0.1L49.7,48.9L49.7,48.9z M51.1,50.2L51.1,50.2l0.2-0.1c0.1-0.1,0.2-0.3,0.2-0.4c0-0.1-0.1-0.2-0.3-0.4
								S50.8,49,50.7,49s-0.2,0.1-0.4,0.2l-0.1,0.1c0,0,0,0,0,0.1L51.1,50.2z"/>
							<path class="st0" d="M55,45.5l-4-1.6c0,0-0.1,0,0-0.1l0.3-0.7c0,0,0-0.1,0.1,0l4,1.6c0,0,0.1,0,0,0.1L55,45.5
								C55.1,45.5,55.1,45.5,55,45.5z"/>
							<path class="st0" d="M56.4,38.6v0.7c0,0,0,0.1-0.1,0.1h-3.6l0,0v0.7c0,0,0,0.1-0.1,0.1H52c0,0-0.1,0-0.1-0.1v-2.3
								c0,0,0-0.1,0.1-0.1h0.6c0,0,0.1,0,0.1,0.1v0.7l0,0L56.4,38.6C56.4,38.5,56.4,38.5,56.4,38.6z"/>
							<path class="st0" d="M56.4,28.3V29c0,0,0,0.1-0.1,0.1L52,29.9c0,0-0.1,0-0.1-0.1v-0.7c0,0,0-0.1,0.1-0.1l2.8-0.5l0,0L52,28.2
								c0,0-0.1,0-0.1-0.1v-0.7c0,0,0-0.1,0.1-0.1L56.4,28.3C56.4,28.2,56.4,28.2,56.4,28.3z"/>
							<path class="st0" d="M56.5,22.6c0,0.6-0.3,1-0.8,1.1c-0.1,0-0.2,0.1-0.4,0.1s-0.5,0-1.1,0s-0.9,0-1.1,0s-0.3,0-0.4-0.1
								c-0.5-0.2-0.8-0.5-0.8-1.1s0.3-1,0.8-1.1c0.1,0,0.2-0.1,0.4-0.1s0.5,0,1.1,0s0.9,0,1.1,0c0.2,0,0.3,0,0.4,0.1
								C56.2,21.6,56.5,22,56.5,22.6z M55.7,22.6c0-0.2-0.1-0.3-0.2-0.3c-0.1,0-0.5,0-1.3,0s-1.2,0-1.3,0s-0.2,0.1-0.2,0.3
								c0,0.2,0.1,0.3,0.2,0.3c0.1,0,0.5,0,1.3,0s1.2,0,1.3,0C55.6,22.8,55.7,22.7,55.7,22.6z"/>
							<path class="st0" d="M55.1,15.3c0.5,0,0.8,0.1,1,0.3s0.3,0.5,0.3,0.9c0,0.8-0.4,1.2-1.2,1.2c0,0-0.1,0-0.1-0.1L55,16.9
								c0,0,0-0.1,0.1-0.1c0.2,0,0.4,0,0.4-0.1c0.1-0.1,0.1-0.2,0.1-0.3c0-0.1,0-0.2-0.1-0.3C55.4,16,55.3,16,55.1,16
								s-0.3,0-0.4,0.1c-0.1,0.1-0.2,0.2-0.2,0.3l-0.1,0.3c-0.1,0.3-0.3,0.5-0.5,0.7c-0.2,0.1-0.5,0.2-0.8,0.2
								c-0.8,0-1.2-0.4-1.2-1.2c0-0.7,0.4-1.1,1.1-1.2c0,0,0.1,0,0.1,0.1l0.1,0.7c0,0,0,0.1-0.1,0.1c-0.3,0-0.5,0.1-0.5,0.4
								c0,0.2,0.1,0.3,0.4,0.3c0.2,0,0.3,0,0.4-0.1c0.1-0.1,0.1-0.2,0.2-0.3l0.1-0.3c0.1-0.3,0.3-0.5,0.5-0.7
								C54.4,15.3,54.7,15.3,55.1,15.3z"/>
						</g>
					</g>
				</g>
			</g>
		</g>
		<g>
			<g>
				<g>
					<path class="st0" d="M31.7,3.7l-1.9,2.1l-1.9-2.1L28,6.5l-2.8-0.1l2.1,1.9l-2.1,1.9l2.8-0.1l-0.1,2.8l1.9-2.1l1.9,2.1L31.6,10
						l2.8,0.1l-2.1-1.9l2.1-1.9l-2.8,0.1L31.7,3.7L31.7,3.7z"/>
				</g>
				<path class="st0" d="M48.3,15.5c-3.1,0-36.8,0-36.9,0c0,0.3,0,21.9,0,23.6c0,1.6,0.4,3,1.2,4.4c0.6,1,1.4,1.8,2.2,2.6
					c0.5,0.5,1,1,1.6,1.4c3.9,3.3,8.2,5.7,13,7.5c0.1,0.1,0.3,0.1,0.4,0.1l0,0l0,0l0,0l0,0c0.1,0,0.3,0,0.4-0.1
					c4.8-1.8,9.2-4.2,13-7.5c0.5-0.5,1.1-0.9,1.6-1.4c0.8-0.8,1.6-1.6,2.2-2.6c0.8-1.3,1.2-2.8,1.2-4.4
					C48.3,37.4,48.3,15.6,48.3,15.5z M44.5,41.9c-0.4,0.6-1,1.3-1.7,1.9c-0.5,0.5-1.1,1-1.6,1.5L29.9,33.9v17.9
					c-4.4-1.7-8.1-3.9-11.3-6.6l11.3-11.3H14.5c0-6.3,0-12.3,0-15.4l0,0l15.4,15.4V18.5h15.4L29.9,33.9h15.4c0,1.7,0,3.4,0,5.1
					C45.3,40,45,41,44.5,41.9z"/>
			</g>
		</g>
	</g>
</g>
</svg>
